<?xml version="1.0" standalone="no"?>
<!DOCTYPE svg PUBLIC "-//W3C//DTD SVG 20010904//EN"
 "http://www.w3.org/TR/2001/REC-SVG-20010904/DTD/svg10.dtd">
<svg version="1.0" xmlns="http://www.w3.org/2000/svg"
 width="512.000000pt" height="512.000000pt" viewBox="0 0 512.000000 512.000000"
 preserveAspectRatio="xMidYMid meet">
<metadata>
Created by potrace 1.11, written by Peter Selinger 2001-2013
</metadata>
<g transform="translate(0.000000,512.000000) scale(0.100000,-0.100000)"
fill="#000000" stroke="none">
<path d="M2566 5028 c-78 -10 -191 -41 -258 -71 -50 -22 -158 -85 -633 -367
-104 -62 -203 -120 -220 -130 -16 -9 -91 -53 -165 -97 -241 -143 -634 -376
-665 -393 -30 -17 -206 -122 -235 -140 -8 -5 -37 -22 -65 -39 -174 -102 -275
-270 -262 -435 6 -75 36 -160 74 -212 13 -17 21 -34 18 -37 -3 -4 -2 -5 2 -2
3 3 23 -13 44 -35 21 -22 42 -40 48 -40 5 0 12 -7 15 -16 5 -12 2 -15 -9 -10
-9 3 -14 2 -11 -3 3 -4 -15 -30 -40 -56 -24 -27 -59 -78 -77 -114 -29 -61 -32
-74 -33 -168 0 -56 3 -100 8 -97 7 5 12 -20 11 -54 -1 -7 1 -11 4 -8 3 3 20
-16 36 -42 17 -26 55 -69 84 -96 l52 -49 -65 -66 c-42 -41 -76 -88 -96 -130
-28 -58 -32 -76 -32 -151 0 -97 6 -160 15 -154 9 5 30 -46 24 -56 -3 -5 0 -12
6 -16 8 -5 10 -2 5 7 -4 8 -1 6 6 -5 7 -10 24 -30 37 -43 20 -21 21 -27 10
-35 -10 -7 -8 -8 7 -3 16 4 28 -2 45 -25 13 -16 29 -30 35 -30 16 0 55 -45 47
-55 -5 -4 -2 -5 4 -1 8 4 23 -3 37 -17 14 -14 27 -22 30 -19 3 3 6 -2 6 -11 0
-9 6 -16 13 -14 6 1 11 -4 9 -11 -1 -8 2 -11 7 -8 5 4 21 -5 35 -19 14 -14 30
-25 37 -25 6 0 8 -7 5 -16 -3 -9 -2 -12 5 -9 13 9 41 -14 32 -28 -4 -6 -1 -7
6 -3 7 5 20 1 29 -8 9 -8 36 -33 60 -55 23 -22 42 -38 42 -34 0 3 7 0 15 -7 8
-7 12 -17 8 -23 -3 -6 -1 -7 5 -3 7 4 12 2 12 -5 0 -7 3 -10 6 -6 4 3 12 1 19
-6 7 -7 27 -23 44 -36 17 -13 28 -28 24 -34 -3 -6 -1 -7 5 -3 6 3 25 -7 42
-24 17 -16 34 -30 39 -30 14 0 51 -46 44 -55 -5 -4 -2 -5 6 0 7 4 16 4 20 -1
3 -5 24 -23 46 -39 22 -16 52 -42 68 -58 15 -15 27 -25 27 -21 0 4 8 -2 18
-13 9 -10 26 -26 38 -34 11 -8 42 -32 68 -53 34 -29 43 -42 34 -48 -8 -6 -4
-7 11 -3 20 6 23 4 18 -9 -4 -11 -3 -15 4 -11 12 8 41 -14 33 -26 -3 -5 2 -6
10 -3 9 3 20 -3 28 -15 7 -12 17 -21 23 -21 6 0 18 -8 26 -17 9 -10 33 -31 53
-46 20 -16 34 -32 31 -37 -3 -5 0 -12 6 -16 8 -5 9 -3 4 6 -4 7 -4 11 2 9 12
-5 105 -83 142 -119 14 -14 28 -25 31 -25 3 0 4 -4 2 -8 -1 -5 1 -6 6 -3 4 3
21 -7 38 -20 16 -14 44 -38 63 -52 58 -45 86 -74 83 -84 -1 -5 2 -6 8 -3 6 4
28 -4 48 -17 58 -38 218 -93 302 -104 14 -2 43 -5 65 -7 22 -3 48 -8 58 -12
10 -4 17 -3 17 5 0 6 6 10 13 8 6 -3 12 -10 12 -16 0 -5 4 -14 8 -19 5 -4 7
-2 5 6 -2 10 9 17 35 21 24 5 37 3 37 -4 0 -7 3 -7 8 1 4 7 31 14 60 15 29 2
52 7 52 12 0 5 6 3 14 -3 11 -9 15 -9 18 0 2 6 18 12 35 13 17 0 29 4 26 9 -2
4 4 7 14 7 20 0 179 76 205 98 9 8 23 11 30 6 7 -4 10 -4 6 1 -10 10 79 68 92
60 5 -3 10 1 10 9 0 9 4 16 9 16 5 0 46 23 91 51 45 28 89 53 98 57 10 3 36
19 59 35 24 15 48 25 54 21 7 -4 9 -3 6 3 -8 13 20 26 35 16 6 -3 8 -1 5 4
-10 16 165 118 178 105 4 -4 5 0 3 8 -2 8 2 14 7 15 6 0 25 10 43 23 17 13 32
20 32 15 0 -4 7 1 15 11 8 11 15 17 15 13 0 -3 24 10 52 29 54 35 74 43 62 22
-5 -7 -3 -8 5 -4 7 5 10 10 7 13 -7 7 29 34 79 58 22 11 42 23 45 26 12 14 68
38 75 31 3 -4 5 -2 3 3 -2 6 2 11 7 13 6 2 17 9 25 16 34 29 142 86 152 80 7
-4 8 -2 4 4 -4 7 7 19 31 29 21 10 40 21 41 26 2 4 8 7 14 7 5 0 16 7 25 16 9
8 22 13 29 10 8 -3 14 1 14 9 0 8 5 15 11 15 6 0 24 9 40 21 16 11 29 17 29
12 0 -4 4 -3 8 2 13 19 62 46 73 40 5 -4 8 -1 7 7 -2 7 4 13 12 13 8 0 25 10
39 23 16 15 31 20 45 17 15 -5 17 -4 7 3 -9 7 -10 12 -2 16 6 4 11 4 11 -1 0
-4 4 -3 8 2 14 21 102 66 114 59 6 -4 8 -3 5 3 -3 5 17 27 45 49 74 56 131
117 121 128 -4 3 -1 6 5 6 6 0 16 16 22 35 6 19 15 33 18 31 7 -4 8 1 18 111
11 124 -37 235 -146 337 -49 46 -50 46 -30 66 11 11 25 19 32 17 7 -1 12 3 13
10 0 7 14 27 31 45 17 18 33 41 37 51 4 10 11 16 16 12 5 -3 13 0 17 6 4 8 3
9 -4 5 -7 -4 -12 -2 -12 3 0 6 4 11 10 11 5 0 9 3 8 8 -3 13 14 62 22 62 4 0
7 44 6 98 -1 87 -4 104 -33 165 -19 39 -55 92 -88 126 l-55 58 50 42 c108 92
161 212 156 348 -2 71 -7 92 -39 155 -56 111 -42 99 -567 528 -197 162 -579
474 -635 521 -51 42 -257 212 -316 260 -37 30 -112 91 -167 136 -149 122 -252
174 -417 209 -81 17 -263 24 -349 12z"/>
<path d="M290 1580 c0 -5 5 -10 11 -10 5 0 7 5 4 10 -3 6 -8 10 -11 10 -2 0
-4 -4 -4 -10z"/>
<path d="M574 1322 c4 -3 14 -7 22 -8 9 -1 13 0 10 4 -4 3 -14 7 -22 8 -9 1
-13 0 -10 -4z"/>
<path d="M900 1086 c0 -2 8 -10 18 -17 15 -13 16 -12 3 4 -13 16 -21 21 -21
13z"/>
<path d="M1036 962 c-3 -5 1 -9 9 -9 8 0 12 4 9 9 -3 4 -7 8 -9 8 -2 0 -6 -4
-9 -8z"/>
<path d="M1186 818 c3 -5 10 -6 15 -3 13 9 11 12 -6 12 -8 0 -12 -4 -9 -9z"/>
<path d="M3810 780 c0 -5 5 -10 11 -10 5 0 7 5 4 10 -3 6 -8 10 -11 10 -2 0
-4 -4 -4 -10z"/>
<path d="M3655 700 c-3 -5 -1 -10 4 -10 6 0 11 5 11 10 0 6 -2 10 -4 10 -3 0
-8 -4 -11 -10z"/>
<path d="M3470 580 c0 -5 5 -10 11 -10 5 0 7 5 4 10 -3 6 -8 10 -11 10 -2 0
-4 -4 -4 -10z"/>
<path d="M1530 539 c0 -5 5 -7 10 -4 6 3 10 8 10 11 0 2 -4 4 -10 4 -5 0 -10
-5 -10 -11z"/>
<path d="M3250 459 c0 -5 5 -7 10 -4 6 3 10 8 10 11 0 2 -4 4 -10 4 -5 0 -10
-5 -10 -11z"/>
<path d="M3199 433 c-13 -16 -12 -17 4 -4 16 13 21 21 13 21 -2 0 -10 -8 -17
-17z"/>
<path d="M1730 386 c0 -2 7 -7 16 -10 8 -3 12 -2 9 4 -6 10 -25 14 -25 6z"/>
<path d="M2010 205 c0 -5 5 -17 10 -25 5 -8 10 -10 10 -5 0 6 -5 17 -10 25 -5
8 -10 11 -10 5z"/>
<path d="M2055 180 c3 -5 8 -10 11 -10 2 0 4 5 4 10 0 6 -5 10 -11 10 -5 0 -7
-4 -4 -10z"/>
<path d="M2720 160 c-9 -6 -10 -10 -3 -10 6 0 15 5 18 10 8 12 4 12 -15 0z"/>
<path d="M2636 127 c3 -10 9 -15 12 -12 3 3 0 11 -7 18 -10 9 -11 8 -5 -6z"/>
<path d="M2310 119 c0 -5 5 -7 10 -4 6 3 10 8 10 11 0 2 -4 4 -10 4 -5 0 -10
-5 -10 -11z"/>
<path d="M2476 107 c3 -10 9 -15 12 -12 3 3 0 11 -7 18 -10 9 -11 8 -5 -6z"/>
</g>
</svg>
